# xmcd
#
# Track frame offsets: 
#        150
#        43270
#        97437
#        120605
#        143732
#        183775
#        207077
#        234432
#        264287
#
# Disc length: 4212 seconds
#
# Revision: 2
# Processed by: cddbd v1.5.2PL0 Copyright (c) Steve Scherf et al.
# Submitted via: ExactAudioCopy v0.95b4
#
DISCID=7c107209
DTITLE=Miles Davis - The Columbia Years 1955-1985 [CD3]
DYEAR=1988
DGENRE=Blues
TTITLE0=Flamenco Sketches
TTITLE1=So What
TTITLE2=Water Babies
TTITLE3=Saeta
TTITLE4=Masqualero
TTITLE5=Pinocchio
TTITLE6=Summer Night
TTITLE7=Fall
TTITLE8=It's About That Time
EXTD=
EXTT0=
EXTT1=
EXTT2=
EXTT3=
EXTT4=
EXTT5=
EXTT6=
EXTT7=
EXTT8=
PLAYORDER=
